<mxfile host="app.diagrams.net" modified="2021-04-25T06:51:21.302Z" agent="5.0 (Macintosh; Intel Mac OS X 10_15_6) AppleWebKit/537.36 (KHTML, like Gecko) Chrome/89.0.4389.82 Safari/537.36" etag="J1VZQPWgLwbGazE16nWd" version="14.6.1" type="github">
  <diagram id="WUvhUG0-YplGzJ5wLNWI" name="第 1 页">
    <mxGraphModel dx="2066" dy="1080" grid="1" gridSize="10" guides="1" tooltips="1" connect="1" arrows="1" fold="1" page="1" pageScale="1" pageWidth="827" pageHeight="1169" math="0" shadow="0">
      <root>
        <mxCell id="0" />
        <mxCell id="1" parent="0" />
      </root>
    </mxGraphModel>
  </diagram>
</mxfile>
